<svg xmlns="http://www.w3.org/2000/svg" version="1.1" xmlns:xlink="http://www.w3.org/1999/xlink" xmlns:svgjs="http://svgjs.dev/svgjs" width="2000" height="2000" viewBox="0 0 2000 2000"><g transform="matrix(1,0,0,1,0,0)"><svg viewBox="0 0 280 280" data-background-color="#ffffff" preserveAspectRatio="xMidYMid meet" height="2000" width="2000" xmlns="http://www.w3.org/2000/svg" xmlns:xlink="http://www.w3.org/1999/xlink"><g id="tight-bounds" transform="matrix(1,0,0,1,0,0)"><svg viewBox="0 0 280 280" height="280" width="280"><g><svg viewBox="0 0 280 280" height="280" width="280"><g><svg viewBox="0 0 280 280" height="280" width="280"><g id="textblocktransform"><svg viewBox="0 0 280 280" height="280" width="280" id="textblock"><g><svg viewBox="0 0 280 280" height="280" width="280"><g transform="matrix(1,0,0,1,79.94306405122256,79.94306405122256)"><svg viewBox="0 0 120.11387189755489 120.11387189755489" height="120.11387189755489" width="120.11387189755489"><g id="icon-0"><svg xmlns="http://www.w3.org/2000/svg" data-name="Layer 1" viewBox="0 0 128 128" x="0" y="0" height="120.11387189755489" width="120.11387189755489" class="icon-xg-0" data-fill-palette-color="accent" id="xg-0"><path d="M18.136 82.998c-4.542 11.393-4.679 20.969 0.609 26.257 2.711 2.711 6.544 3.998 11.174 3.998a41.839 41.839 0 0 0 15.084-3.387C49.847 121.133 56.521 128 64 128s14.153-6.867 18.997-18.135a41.841 41.841 0 0 0 15.084 3.387c4.628 0 8.464-1.287 11.174-3.997 5.288-5.288 5.151-14.864 0.609-26.257C121.132 78.154 128 71.479 128 64s-6.868-14.154-18.136-18.998c4.542-11.393 4.679-20.969-0.609-26.257C103.966 13.457 94.39 13.593 82.998 18.135 78.154 6.868 71.479 0 64 0 56.521 0 49.846 6.868 45.002 18.136c-11.392-4.542-20.968-4.679-26.257 0.609-5.288 5.288-5.151 14.864-0.609 26.257C6.868 49.846 0 56.521 0 64S6.868 78.154 18.136 82.998Zm3.437 23.429c-4.121-4.121-3.695-12.19 0.274-21.963a100.747 100.747 0 0 0 17.21 4.479A100.75 100.75 0 0 0 43.535 106.153C33.763 110.121 25.696 110.546 21.573 106.427Zm15.493-38.063Q35.315 66.18 33.71 64q1.604-2.179 3.356-4.364C37.027 61.078 37 62.53 37 64S37.027 66.922 37.066 68.364Zm-5.816-7.814a98.957 98.957 0 0 1-7.776-13.336A98.959 98.959 0 0 1 38.402 43.282q-0.656 4.687-1.012 9.696Q34.103 56.764 31.25 60.55ZM37.39 75.022q0.352 5.001 1.012 9.696a98.959 98.959 0 0 1-14.928-3.932 98.957 98.957 0 0 1 7.776-13.336Q34.1 71.228 37.39 75.022ZM47.736 47.736q3.382-3.382 6.856-6.436Q59.203 41.007 64 41q4.789 0 9.408 0.3 3.463 3.051 6.856 6.436 3.384 3.384 6.437 6.861Q86.993 59.206 87 64q0 4.786-0.299 9.403-3.052 3.465-6.437 6.861-3.384 3.384-6.861 6.437Q68.794 86.993 64 87q-4.786 0-9.403-0.299-3.465-3.052-6.861-6.437-3.384-3.384-6.437-6.861Q41.007 68.794 41 64q0-4.786 0.299-9.403Q44.352 51.131 47.736 47.736Zm-5.867 0.305q0.306-2.783 0.713-5.459 2.675-0.406 5.459-0.713c-1.048 0.992-2.093 1.999-3.133 3.039S42.862 46.993 41.869 48.041ZM59.625 37.067q2.189-1.756 4.375-3.361 2.184 1.608 4.375 3.361C66.929 37.027 65.474 37 64 37S61.071 37.027 59.625 37.067ZM79.959 41.869q2.783 0.306 5.459 0.713 0.406 2.675 0.713 5.459c-0.992-1.048-2-2.093-3.039-3.133S81.007 42.862 79.959 41.869Zm6.172 38.09q-0.306 2.783-0.713 5.459-2.672 0.406-5.453 0.712 1.569-1.486 3.127-3.038C84.131 82.052 85.138 81.007 86.131 79.959ZM68.364 90.934q-2.184 1.752-4.364 3.357-2.179-1.604-4.365-3.357C61.078 90.973 62.53 91 64 91S66.922 90.973 68.364 90.934ZM48.035 86.13q-2.78-0.306-5.453-0.712-0.406-2.675-0.713-5.459c0.992 1.048 2 2.093 3.039 3.133Q46.465 84.648 48.035 86.13Zm-4.753 3.468q4.685 0.655 9.691 1.012 3.786 3.288 7.573 6.143a98.939 98.939 0 0 1-13.332 7.773A98.957 98.957 0 0 1 43.282 89.598ZM64 124c-5.827 0-11.23-6.004-15.334-15.718a100.87 100.87 0 0 0 15.334-9.011 100.857 100.857 0 0 0 15.335 9.01C75.231 117.996 69.827 124 64 124Zm16.786-19.473A98.95 98.95 0 0 1 67.454 96.753q3.778-2.851 7.574-6.143 4.998-0.352 9.69-1.012A98.956 98.956 0 0 1 80.786 104.527Zm25.641 1.9c-4.121 4.122-12.19 3.696-21.963-0.273a100.752 100.752 0 0 0 4.479-17.211 100.747 100.747 0 0 0 17.21-4.479C110.122 94.237 110.547 102.306 106.427 106.427ZM90.934 59.636Q92.685 61.82 94.29 64q-1.604 2.179-3.356 4.364C90.973 66.922 91 65.47 91 64S90.973 61.078 90.934 59.636ZM90.61 52.978q-0.352-5.001-1.012-9.696a98.959 98.959 0 0 1 14.928 3.932 98.957 98.957 0 0 1-7.776 13.336Q93.9 56.772 90.61 52.978Zm0 22.044q3.287-3.785 6.14-7.572a98.957 98.957 0 0 1 7.776 13.336A98.959 98.959 0 0 1 89.598 84.718Q90.254 80.031 90.61 75.022ZM124 64c0 5.828-6.006 11.232-15.723 15.336A100.743 100.743 0 0 0 99.274 64 100.743 100.743 0 0 0 108.277 48.664C117.994 52.768 124 58.172 124 64ZM98.044 18.67c3.534 0 6.41 0.932 8.383 2.903 4.121 4.121 3.695 12.19-0.273 21.963a100.747 100.747 0 0 0-17.211-4.479 100.75 100.75 0 0 0-4.479-17.211A37.466 37.466 0 0 1 98.044 18.67ZM84.718 38.402q-4.687-0.656-9.696-1.012-3.784-3.286-7.569-6.138a99.022 99.022 0 0 1 13.333-7.779A98.949 98.949 0 0 1 84.718 38.402ZM64 4c5.828 0 11.232 6.006 15.336 15.722a100.746 100.746 0 0 0-15.337 9.004A100.755 100.755 0 0 0 48.664 19.723C52.768 10.006 58.172 4 64 4ZM47.214 23.474a99.029 99.029 0 0 1 13.333 7.778q-3.777 2.85-7.569 6.138-5.001 0.352-9.696 1.012A98.954 98.954 0 0 1 47.214 23.474ZM21.573 21.573c1.973-1.973 4.848-2.903 8.383-2.903a37.465 37.465 0 0 1 13.58 3.176 100.749 100.749 0 0 0-4.479 17.211A100.747 100.747 0 0 0 21.846 43.536C17.878 33.763 17.453 25.694 21.573 21.573ZM19.723 48.664A100.743 100.743 0 0 0 28.726 64 100.743 100.743 0 0 0 19.723 79.336C10.006 75.232 4 69.828 4 64S10.006 52.768 19.723 48.664Z" fill="#001030" data-fill-palette-color="accent"></path><path d="M64 81A17 17 0 1 0 47 64 17.019 17.019 0 0 0 64 81Zm0-30A13 13 0 1 1 51 64 13.015 13.015 0 0 1 64 51Z" fill="#001030" data-fill-palette-color="accent"></path><path d="M64 72a8 8 0 1 0-8-8A8.009 8.009 0 0 0 64 72Zm0-12a4 4 0 1 1-4 4A4.004 4.004 0 0 1 64 60Z" fill="#001030" data-fill-palette-color="accent"></path></svg></g></svg></g><g id="text-0"><path d="M13.329 82.476v0c-3.636-1.217-5.73-1.001-6.282 0.647v0c-0.137-0.046-0.242-0.157-0.314-0.334v0c-0.137-0.329-0.142-0.684-0.015-1.063v0c0.446-1.334 1.772-1.862 3.977-1.582v0c0.892 0.095 1.805 0.299 2.741 0.612v0c1.772 0.593 3.638 1.559 5.597 2.898v0c3.362 2.274 5.61 4.761 6.743 7.46v0c0.77 1.85 0.879 3.6 0.328 5.248v0c-0.897 2.681-2.866 4.044-5.907 4.089v0c-1.42 0.027-2.905-0.219-4.454-0.738-1.55-0.519-3.155-1.296-4.816-2.332v0c-3.297-2.1-5.689-4.526-7.176-7.277v0c-1.286-2.372-1.593-4.562-0.921-6.57v0c0.186-0.556 0.453-0.939 0.799-1.151 0.349-0.218 0.655-0.283 0.916-0.195v0l0.364 0.089c-0.144 0.17-0.306 0.523-0.486 1.059v0c-0.718 2.145 0.015 4.507 2.2 7.085 2.184 2.578 4.934 4.629 8.25 6.154v0c0.835 0.396 1.622 0.717 2.361 0.964v0c2.263 0.757 4.149 0.89 5.659 0.399v0c1.174-0.4 1.954-1.179 2.341-2.336v0c0.803-2.4-0.183-4.919-2.958-7.557-2.767-2.642-5.749-4.498-8.947-5.569z" fill="#001030" data-fill-palette-color="primary"></path><path d="M71.971 15.419v0c-0.701 0.341-1.29 0.021-1.766-0.959-0.473-0.974-0.496-2.313-0.066-4.017v0c0.71-2.861 2.493-5.18 5.347-6.959v0l1.509-0.848c3.43-1.667 6.582-1.509 9.456 0.475v0c1.738 1.225 3.138 2.93 4.2 5.113v0c0.44 0.906 0.829 1.894 1.165 2.965v0c1.085 3.621 1.169 7.097 0.249 10.427v0c-1.01 3.681-3.015 6.251-6.017 7.71-3.008 1.462-5.323 1.552-6.943 0.27v0c-0.504-0.407-0.901-0.908-1.191-1.503-0.286-0.589-0.43-1.294-0.43-2.115v0c0.035-1.505 0.589-2.518 1.663-3.039v0c0.099-0.048 0.187-0.026 0.263 0.067 0.079 0.084 0.123 0.197 0.13 0.339 0.005 0.136-0.04 0.226-0.133 0.272v0c-0.639 0.311-0.993 0.993-1.063 2.047v0c-0.011 0.734 0.102 1.346 0.34 1.836 0.238 0.49 0.55 0.894 0.935 1.213v0c1.226 0.991 2.98 0.932 5.263-0.177v0c2.58-1.254 4.275-3.708 5.083-7.36v0c0.724-3.289 0.582-6.667-0.428-10.133v0c-0.311-1.129-0.692-2.156-1.141-3.08v0c-0.998-2.053-2.303-3.562-3.915-4.527v0c-2.148-1.31-4.533-1.327-7.157-0.052v0c-3.275 1.592-5.194 3.89-5.758 6.895v0c-0.282 1.533-0.185 2.789 0.291 3.769v0c0.193 0.397 0.376 0.553 0.55 0.469v0c0.063 0.429-0.082 0.73-0.436 0.902zM81.243 24.151v0c-1.39-2.859-2.488-5.765-3.294-8.716-0.806-2.952-1.218-5.393-1.237-7.324-0.022-1.937 0.315-3.075 1.009-3.413v0c0.304-0.148 0.53-0.07 0.678 0.234v0c0.001 2.162 0.392 4.859 1.173 8.092v0c1.406 5.904 2.686 10.044 3.84 12.419v0c0.118 0.242 0.043 0.428-0.223 0.557v0c-0.564 0.274-1.213-0.342-1.946-1.849z" fill="#001030" data-fill-palette-color="primary"></path><path d="M181.331 20.99v0c-0.569-1.306-0.474-2.869 0.285-4.69v0c0.847-2.031 2.386-3.851 4.619-5.46v0c1.237-0.889 2.644-1.457 4.219-1.705 1.584-0.251 3.118-0.068 4.601 0.551v0c0.662 0.276 1.32 0.688 1.973 1.237v0c2.479-1.806 4.409-3.056 5.789-3.751 1.374-0.697 2.519-1.184 3.433-1.46v0c2.045-0.604 3.851-0.58 5.417 0.073v0c0.306 0.127 0.393 0.347 0.263 0.659v0c-2.441 2.27-4.599 4.688-6.476 7.253-1.876 2.565-3.565 5.119-5.066 7.661-1.498 2.536-2.639 4.743-3.421 6.621v0c-0.114 0.274-0.308 0.354-0.582 0.239v0c-0.675-0.281-0.69-1.195-0.045-2.742v0c0.815-1.954 1.368-3.801 1.66-5.54v0c0.583-3.299 0.236-5.782-1.041-7.45v0c-0.386 0.317-1.11 0.923-2.171 1.819-1.067 0.893-1.852 1.548-2.355 1.966-0.5 0.412-1.228 0.983-2.182 1.712-0.946 0.727-1.733 1.299-2.363 1.716v0c-1.511 1.007-3.025 1.806-4.542 2.399v0c0.173 0.14 0.394 0.265 0.661 0.377v0c1.623 0.677 3.191 0.699 4.702 0.066 1.509-0.626 2.774-1.59 3.794-2.89v0c0.145-0.186 0.341-0.217 0.588-0.091v0c0.145 0.083 0.17 0.183 0.076 0.3v0c-1.119 1.484-2.534 2.601-4.245 3.353-1.704 0.754-3.457 0.756-5.258 0.004v0c-0.407-0.17-0.835-0.426-1.282-0.769v0c-2.37 0.685-4.561 0.609-6.573-0.23v0c-2.61-1.088-4.038-2.887-4.285-5.396v0c-0.139-1.351 0.057-2.663 0.588-3.935v0c0.281-0.675 0.662-1.346 1.141-2.013v0c1.295-1.799 2.836-2.823 4.621-3.072v0c0.891-0.129 1.763-0.016 2.616 0.34v0c0.267 0.111 0.456 0.287 0.564 0.527 0.103 0.237 0.121 0.544 0.054 0.919v0c-1.139-0.475-2.334-0.495-3.584-0.06v0c-2.082 0.693-3.636 2.269-4.66 4.726v0c-0.621 1.49-0.655 2.843-0.101 4.06 0.547 1.214 1.578 2.138 3.093 2.769 1.521 0.634 3.346 0.603 5.475-0.093zM194.593 10.715v0c-1.623-0.677-3.303-0.753-5.038-0.229-1.742 0.522-3.209 1.371-4.402 2.547-1.19 1.17-2.088 2.481-2.693 3.933-0.602 1.445-0.696 2.699-0.28 3.761v0c1.028-0.386 2.191-0.973 3.492-1.761 1.306-0.785 2.362-1.462 3.167-2.031 0.808-0.575 2.086-1.518 3.835-2.828 1.749-1.311 2.882-2.154 3.397-2.529v0c-0.406-0.334-0.899-0.621-1.478-0.863zM209.684 6.292v0c-1.717-0.237-3.528 0.128-5.433 1.097-1.902 0.978-4.042 2.436-6.419 4.374v0c1.451 1.808 1.911 4.406 1.38 7.793v0c1.72-3.139 3.545-5.923 5.477-8.353 1.932-2.43 3.597-4.067 4.995-4.911z" fill="#001030" data-fill-palette-color="primary"></path><path d="M243.887 91.886v0c0.496 1.361 1.291 2.447 2.386 3.26 1.098 0.819 2.176 1.391 3.235 1.717 1.058 0.327 2.557 0.46 4.495 0.401 1.938-0.06 3.408-0.155 4.41-0.285 1.002-0.13 2.082-0.288 3.24-0.475 1.158-0.187 1.779-0.284 1.864-0.294 0.085-0.009 0.186-0.024 0.303-0.044 0.111-0.018 0.283-0.048 0.518-0.089 0.228-0.039 0.658-0.108 1.29-0.206v0l-0.074-0.204c-6.356-0.805-9.841-2.053-10.458-3.745v0c-0.717-1.97 0.107-3.386 2.472-4.247v0c1.063-0.387 3.491-0.713 7.284-0.979 3.787-0.263 6.458-0.678 8.014-1.244v0c1.004-0.366 1.733-0.895 2.185-1.589 0.455-0.687 0.499-1.532 0.133-2.536v0c-0.651-1.789-2.162-2.754-4.534-2.896v0c-1.595-0.087-3.08 0.119-4.453 0.619v0c-0.674 0.245-1.32 0.558-1.938 0.937v0c-1.89 1.18-2.58 2.47-2.07 3.87v0c-0.324-0.043-0.529-0.182-0.613-0.415v0c-0.644-1.769 0.058-3.328 2.106-4.676v0c0.64-0.439 1.317-0.788 2.03-1.047v0c1.51-0.55 3.173-0.719 4.99-0.507v0c2.664 0.322 4.401 1.594 5.21 3.817v0c0.623 1.711 0.596 3.13-0.079 4.256-0.669 1.125-1.766 1.964-3.289 2.519-1.529 0.557-4.129 0.986-7.799 1.287-3.664 0.299-6.063 0.655-7.197 1.068-1.134 0.413-1.562 1.002-1.283 1.767v0c0.236 0.648 1.506 1.224 3.811 1.728v0c3.675 0.842 7.521 1.335 11.537 1.48v0c1.581 0.048 2.496 0.416 2.747 1.103v0c0.158 0.434 0.01 0.734-0.444 0.899v0c-1.922-0.078-4.979 0.253-9.172 0.994v0c-4.894 0.872-8.493 1.236-10.799 1.092v0c-1.003-0.053-2.116-0.217-3.338-0.491-1.22-0.268-2.257-0.665-3.109-1.191-0.852-0.526-1.664-1.244-2.435-2.152-0.778-0.906-1.393-1.981-1.846-3.225v0c-1.095-3.007-0.841-5.496 0.76-7.466v0c0.777-0.929 1.727-1.598 2.848-2.006v0c0.609-0.222 1.271-0.36 1.985-0.414v0c1.815-0.155 3.258 0.289 4.327 1.331v0c0.453 0.437 0.753 0.86 0.902 1.268v0c0.238 0.655 0.191 1.109-0.143 1.362v0l-0.183 0.132c-0.496-1.361-1.592-2.165-3.289-2.413v0c-1.106-0.155-2.041-0.093-2.807 0.185v0c-2.929 1.067-4.329 2.916-4.2 5.548v0c0.034 0.699 0.191 1.431 0.47 2.196z" fill="#001030" data-fill-palette-color="primary"></path><path d="M0 135.253c0-5.33 4.321-9.65 9.65-9.65 5.33 0 9.65 4.321 9.651 9.65 0 5.33-4.321 9.65-9.651 9.651-5.33 0-9.65-4.321-9.65-9.651z" fill="#001030" data-fill-palette-color="primary"></path><path d="M260.699 135.253c0-5.33 4.321-9.65 9.651-9.65 5.33 0 9.65 4.321 9.65 9.65 0 5.33-4.321 9.65-9.65 9.651-5.33 0-9.65-4.321-9.651-9.651z" fill="#001030" data-fill-palette-color="primary"></path></g><g id="text-1"><path d="M112.925 257.754v0c0.931-3.206 0.668-5.02-0.789-5.443v0c0.037-0.126 0.133-0.223 0.289-0.293v0c0.281-0.127 0.587-0.142 0.918-0.046v0c1.179 0.342 1.685 1.48 1.519 3.414v0c-0.055 0.781-0.201 1.583-0.439 2.404v0c-0.454 1.563-1.23 3.223-2.33 4.979v0c-1.866 3.013-3.954 5.06-6.264 6.142v0c-1.58 0.741-3.098 0.899-4.555 0.476v0c-2.371-0.688-3.628-2.357-3.771-5.005v0c-0.077-1.243 0.082-2.547 0.478-3.911 0.398-1.371 1.021-2.799 1.869-4.284v0c1.716-2.942 3.746-5.11 6.09-6.505v0c2.022-1.201 3.917-1.545 5.685-1.031v0c0.49 0.142 0.836 0.361 1.038 0.657 0.201 0.295 0.269 0.559 0.201 0.791v0l-0.06 0.316c-0.16-0.118-0.475-0.245-0.944-0.382v0c-1.894-0.55-3.927 0.17-6.1 2.161-2.168 1.999-3.857 4.467-5.069 7.404v0c-0.311 0.75-0.561 1.449-0.75 2.099v0c-0.581 2-0.632 3.648-0.153 4.943v0c0.389 1.011 1.093 1.664 2.113 1.96v0c2.119 0.615 4.283-0.333 6.492-2.844 2.2-2.507 3.711-5.174 4.532-8.002z" fill="#001030" data-fill-palette-color="primary"></path><path d="M116.495 258.113v0c-0.671-0.085-0.946-0.599-0.826-1.543 0.119-0.937 0.741-1.926 1.866-2.966v0c1.876-1.751 4.284-2.597 7.224-2.537v0l1.498 0.106c3.298 0.417 5.527 2.034 6.686 4.85v0c0.678 1.726 0.885 3.64 0.619 5.74v0c-0.11 0.869-0.298 1.777-0.563 2.723v0c-0.934 3.156-2.529 5.731-4.784 7.727v0c-2.49 2.208-5.182 3.13-8.076 2.763-2.887-0.365-4.619-1.401-5.196-3.107v0c-0.168-0.543-0.216-1.098-0.144-1.666 0.073-0.575 0.303-1.157 0.69-1.748v0c0.742-1.088 1.63-1.566 2.664-1.436v0c0.089 0.011 0.141 0.07 0.155 0.176 0.015 0.099-0.005 0.201-0.06 0.306-0.062 0.103-0.137 0.149-0.226 0.138v0c-0.616-0.078-1.204 0.254-1.763 0.997v0c-0.358 0.525-0.567 1.023-0.627 1.495-0.06 0.472-0.022 0.918 0.112 1.339v0c0.419 1.304 1.727 2.095 3.923 2.373v0c2.484 0.314 4.892-0.671 7.225-2.955v0c2.102-2.056 3.608-4.59 4.517-7.604v0c0.311-0.976 0.522-1.905 0.634-2.787v0c0.25-1.977 0.017-3.703-0.7-5.177v0c-0.946-1.976-2.678-3.123-5.196-3.442v0c-3.154-0.399-5.656 0.362-7.504 2.284v0c-0.931 0.988-1.456 1.95-1.575 2.887v0c-0.048 0.383 0.009 0.585 0.173 0.606v0c-0.155 0.349-0.404 0.502-0.746 0.458zM119.102 268.912v0c0.349-2.757 0.931-5.405 1.745-7.944 0.822-2.538 1.687-4.517 2.597-5.938 0.903-1.422 1.69-2.091 2.36-2.006v0c0.294 0.037 0.423 0.2 0.387 0.487v0c-1.034 1.579-2.037 3.736-3.008 6.47v0c-1.792 4.987-2.832 8.62-3.12 10.898v0c-0.03 0.239-0.172 0.343-0.425 0.311v0c-0.541-0.068-0.719-0.828-0.536-2.278z" fill="#001030" data-fill-palette-color="primary"></path><path d="M145.575 273.016v0c-0.952-0.785-1.493-2.034-1.623-3.746v0c-0.145-1.912 0.331-3.936 1.428-6.074v0c0.609-1.181 1.477-2.18 2.604-2.999 1.128-0.819 2.393-1.281 3.796-1.388v0c0.619-0.047 1.294 0.012 2.026 0.179v0c1.209-2.388 2.212-4.124 3.008-5.208 0.796-1.084 1.494-1.915 2.094-2.493v0c1.349-1.271 2.763-1.963 4.241-2.075v0c0.289-0.022 0.444 0.112 0.466 0.4v0c-1.003 2.732-1.726 5.467-2.168 8.205-0.443 2.731-0.747 5.382-0.912 7.954-0.158 2.564-0.17 4.73-0.036 6.497v0c0.019 0.254-0.098 0.391-0.353 0.411v0c-0.64 0.049-1.015-0.656-1.125-2.114v0c-0.139-1.836-0.437-3.487-0.894-4.954v0c-0.856-2.799-2.109-4.592-3.759-5.379v0c-0.177 0.401-0.5 1.158-0.969 2.273-0.476 1.115-0.829 1.934-1.059 2.456-0.223 0.522-0.559 1.253-1.006 2.192-0.454 0.941-0.843 1.7-1.165 2.278v0c-0.774 1.373-1.633 2.59-2.577 3.65v0c0.183 0.041 0.402 0.053 0.656 0.033v0c1.534-0.116 2.761-0.718 3.682-1.804 0.927-1.087 1.531-2.336 1.811-3.748v0c0.04-0.204 0.177-0.307 0.412-0.311v0c0.146 0.01 0.207 0.081 0.182 0.214v0c-0.28 1.591-0.937 3.017-1.968 4.279-1.032 1.261-2.393 1.956-4.085 2.084v0c-0.385 0.029-0.82 0-1.304-0.088v0c-1.576 1.475-3.309 2.284-5.2 2.428v0c-2.462 0.187-4.285-0.647-5.47-2.501v0c-0.643-0.996-1.01-2.095-1.101-3.298v0c-0.049-0.64-0.016-1.309 0.096-2.01v0c0.298-1.911 1.09-3.32 2.377-4.226v0c0.644-0.45 1.364-0.705 2.162-0.766v0c0.254-0.019 0.47 0.044 0.647 0.189 0.177 0.139 0.315 0.37 0.416 0.695v0c-1.08 0.082-2.017 0.537-2.812 1.365v0c-1.342 1.367-1.925 3.207-1.749 5.517v0c0.106 1.403 0.613 2.468 1.518 3.195 0.906 0.727 2.074 1.036 3.504 0.927 1.43-0.108 2.833-0.855 4.209-2.239zM151.834 259.791v0c-1.534 0.116-2.871 0.723-4.012 1.819-1.148 1.09-1.954 2.327-2.416 3.711-0.462 1.384-0.642 2.756-0.538 4.118 0.104 1.369 0.53 2.381 1.278 3.036v0c0.638-0.705 1.309-1.621 2.012-2.746 0.703-1.125 1.254-2.07 1.652-2.833 0.399-0.763 1.021-2 1.866-3.711 0.839-1.71 1.388-2.813 1.648-3.31v0c-0.45-0.097-0.947-0.125-1.49-0.084zM161.806 250.382v0c-1.429 0.489-2.692 1.491-3.787 3.005-1.095 1.515-2.18 3.492-3.254 5.933v0c1.841 0.836 3.225 2.674 4.154 5.515v0c0.088-3.119 0.405-6.007 0.951-8.662 0.539-2.648 1.185-4.579 1.936-5.791z" fill="#001030" data-fill-palette-color="primary"></path><path d="M173.564 277.573v0c1.22-0.324 2.225-0.933 3.014-1.828 0.798-0.89 1.382-1.78 1.753-2.671 0.362-0.895 0.593-2.188 0.693-3.877 0.101-1.689 0.135-2.972 0.102-3.848-0.035-0.883-0.09-1.831-0.167-2.845-0.072-1.023-0.108-1.573-0.107-1.652-0.004-0.07-0.01-0.158-0.017-0.264-0.005-0.099-0.017-0.252-0.037-0.461-0.018-0.202-0.044-0.581-0.076-1.135v0l-0.18 0.047c-1.198 5.456-2.557 8.386-4.077 8.79v0c-1.766 0.469-2.931-0.356-3.494-2.476v0c-0.253-0.953-0.345-3.087-0.277-6.402 0.062-3.313-0.092-5.666-0.462-7.059v0c-0.239-0.9-0.64-1.575-1.202-2.025-0.56-0.443-1.29-0.546-2.19-0.307v0c-1.606 0.427-2.566 1.663-2.879 3.708v0c-0.197 1.38-0.132 2.686 0.195 3.919v0c0.159 0.6 0.379 1.184 0.658 1.752v0c0.882 1.735 1.949 2.436 3.203 2.104v0c-0.061 0.28-0.198 0.449-0.412 0.505v0c-1.586 0.421-2.884-0.312-3.891-2.199v0c-0.33-0.597-0.579-1.213-0.748-1.846v0c-0.361-1.36-0.381-2.817-0.059-4.373v0c0.492-2.286 1.734-3.693 3.728-4.222v0c1.533-0.407 2.763-0.277 3.689 0.39 0.928 0.674 1.574 1.694 1.937 3.061 0.363 1.366 0.529 3.656 0.497 6.868-0.025 3.211 0.097 5.322 0.366 6.336 0.271 1.02 0.753 1.438 1.446 1.253v0c0.58-0.154 1.177-1.212 1.791-3.173v0c1.018-3.125 1.747-6.426 2.186-9.903v0c0.164-1.371 0.556-2.139 1.176-2.304v0c0.387-0.103 0.634 0.049 0.742 0.456v0c-0.215 1.663-0.163 4.343 0.155 8.04v0c0.371 4.326 0.406 7.481 0.106 9.466v0c-0.133 0.87-0.361 1.823-0.686 2.858-0.329 1.044-0.755 1.913-1.277 2.609-0.528 0.697-1.216 1.347-2.061 1.95-0.853 0.605-1.836 1.055-2.949 1.35v0c-2.7 0.717-4.839 0.304-6.419-1.238v0c-0.747-0.744-1.254-1.619-1.522-2.625v0c-0.147-0.553-0.217-1.141-0.211-1.764v0c0.007-1.586 0.503-2.806 1.489-3.66v0c0.42-0.354 0.813-0.58 1.18-0.677v0c0.587-0.156 0.974-0.08 1.162 0.226v0l0.111 0.174c-1.22 0.324-2.004 1.214-2.353 2.669v0c-0.227 0.945-0.249 1.761-0.067 2.448v0c0.699 2.633 2.196 3.994 4.489 4.084v0c0.614 0.029 1.265-0.047 1.952-0.229z" fill="#001030" data-fill-palette-color="primary"></path></g></svg></g></svg></g></svg></g><g></g></svg></g><defs></defs></svg><rect width="280" height="280" fill="none" stroke="none" visibility="hidden"></rect></g></svg></g></svg>